<svg xmlns="http://www.w3.org/2000/svg" viewBox="0 0 32 32">
  <!-- Ocean background -->
  <circle cx="16" cy="16" r="14" fill="#3b82f6"/>
  
  <!-- Europe and Africa landmasses -->
  <path d="
    M14 4.5
    C13.5 5 13 6 13.5 7
    C14 8 15 8.5 15 9.5
    C15 10.5 14 11 13 11
    C12 11 11.5 11.5 11 12.5
    C10.5 13.5 11 14.5 11 15.5
    C11 16.5 10.5 17.5 10 18.5
    C9.5 19.5 9 21 9.5 22.5
    C10 24 11 25 12 25.5
    C13 26 14 26.5 15 26
    C16 25.5 16.5 24.5 16 23.5
    C15.5 22.5 16 21.5 17 21
    C18 20.5 19 20 19 18.5
    C19 17 18 16 18 14.5
    C18 13 18.5 12 19 11
    C19.5 10 19 9 18.5 8
    C18 7 17 6.5 16 6
    C15 5.5 14.5 5 14 4.5
    Z
  " fill="#22c55e"/>
  
  <!-- British Isles hint -->
  <ellipse cx="12" cy="8" rx="1.2" ry="1.5" fill="#22c55e"/>
  
  <!-- Scandinavia hint -->
  <path d="M15.5 5 C16 5.5 17 6 16.5 7 C16 7.5 15 7 15.5 5 Z" fill="#22c55e"/>
  
  <!-- Madagascar hint -->
  <ellipse cx="20" cy="21" rx="0.8" ry="1.5" fill="#22c55e"/>
  
  <!-- Globe shine/highlight -->
  <ellipse cx="11" cy="10" rx="4" ry="5" fill="white" opacity="0.15"/>
  
  <!-- Subtle grid lines for globe effect -->
  <ellipse cx="16" cy="16" rx="14" ry="14" fill="none" stroke="#2563eb" stroke-width="0.5" opacity="0.3"/>
  <ellipse cx="16" cy="16" rx="9" ry="14" fill="none" stroke="#2563eb" stroke-width="0.4" opacity="0.25"/>
  <ellipse cx="16" cy="16" rx="4" ry="14" fill="none" stroke="#2563eb" stroke-width="0.3" opacity="0.2"/>
  <line x1="2" y1="16" x2="30" y2="16" stroke="#2563eb" stroke-width="0.4" opacity="0.2"/>
</svg>
